<mxfile host="Electron" agent="Mozilla/5.0 (Windows NT 10.0; Win64; x64) AppleWebKit/537.36 (KHTML, like Gecko) draw.io/28.0.6 Chrome/138.0.7204.100 Electron/37.2.3 Safari/537.36" version="28.0.6">
  <diagram name="第 1 页" id="O1GhSX2CPB_PXVn-qLu9">
    <mxGraphModel dx="1090" dy="1994" grid="1" gridSize="10" guides="1" tooltips="1" connect="1" arrows="1" fold="1" page="1" pageScale="1" pageWidth="827" pageHeight="1169" math="0" shadow="0">
      <root>
        <mxCell id="0" />
        <mxCell id="1" parent="0" />
        <mxCell id="2IbXd_nf8m7JM7i66Ga9-1" value="" style="group" vertex="1" connectable="0" parent="1">
          <mxGeometry x="220" y="200" width="450" height="365" as="geometry" />
        </mxCell>
        <mxCell id="2IbXd_nf8m7JM7i66Ga9-2" value="" style="endArrow=none;html=1;rounded=0;" edge="1" parent="2IbXd_nf8m7JM7i66Ga9-1">
          <mxGeometry width="50" height="50" relative="1" as="geometry">
            <mxPoint y="170" as="sourcePoint" />
            <mxPoint x="350" y="170" as="targetPoint" />
          </mxGeometry>
        </mxCell>
        <mxCell id="2IbXd_nf8m7JM7i66Ga9-3" value="" style="endArrow=none;html=1;rounded=0;" edge="1" parent="2IbXd_nf8m7JM7i66Ga9-1">
          <mxGeometry width="50" height="50" relative="1" as="geometry">
            <mxPoint x="175" as="sourcePoint" />
            <mxPoint x="175" y="340" as="targetPoint" />
          </mxGeometry>
        </mxCell>
        <mxCell id="2IbXd_nf8m7JM7i66Ga9-4" value="" style="verticalLabelPosition=bottom;verticalAlign=top;html=1;shape=mxgraph.basic.arc;startAngle=0.20272076219022264;endAngle=2.4;rotation=-90;" vertex="1" parent="2IbXd_nf8m7JM7i66Ga9-1">
          <mxGeometry x="105" y="82.90899999999996" width="192.9375" height="174.165" as="geometry" />
        </mxCell>
        <mxCell id="2IbXd_nf8m7JM7i66Ga9-5" value="" style="verticalLabelPosition=bottom;verticalAlign=top;html=1;shape=mxgraph.basic.arc;startAngle=0;endAngle=0.7730476249162135;rotation=-90;" vertex="1" parent="2IbXd_nf8m7JM7i66Ga9-1">
          <mxGeometry x="116.81250000000001" y="97.74999999999999" width="139.125" height="144.5" as="geometry" />
        </mxCell>
        <mxCell id="2IbXd_nf8m7JM7i66Ga9-6" value="" style="verticalLabelPosition=bottom;verticalAlign=top;html=1;shape=mxgraph.basic.arc;startAngle=0.5033152483999501;endAngle=0.9794252440875133;rotation=0;" vertex="1" parent="2IbXd_nf8m7JM7i66Ga9-1">
          <mxGeometry x="140" y="153" width="75.46000000000001" height="85" as="geometry" />
        </mxCell>
        <mxCell id="2IbXd_nf8m7JM7i66Ga9-8" value="&lt;div style=&quot;text-align: left;&quot;&gt;&lt;span style=&quot;background-color: transparent; text-align: center;&quot;&gt;&lt;font color=&quot;#000000&quot;&gt;&lt;b&gt;STEP 1: Find cases with high correlation and the most similar attributes&lt;/b&gt;&lt;/font&gt;&lt;/span&gt;&lt;/div&gt;&lt;div style=&quot;text-align: left;&quot;&gt;&lt;font color=&quot;#000000&quot;&gt;Based on the patient&#39;s chief complaint, medical history and other characteristics, find and return a highly relevant case with the most similar attributes from the hierarchical multi-dimensional retrieval case knowledge base&lt;/font&gt;&lt;/div&gt;" style="rounded=0;whiteSpace=wrap;html=1;fillColor=#FFFF66;fontColor=#ffffff;strokeColor=#6F0000;" vertex="1" parent="1">
          <mxGeometry x="524" y="60" width="156" height="180" as="geometry" />
        </mxCell>
        <mxCell id="2IbXd_nf8m7JM7i66Ga9-9" value="&lt;div style=&quot;text-align: left;&quot;&gt;&lt;font style=&quot;color: rgb(0, 0, 0);&quot;&gt;&lt;b style=&quot;&quot;&gt;STEP 4: Feedback and knowledge base updates&lt;/b&gt;&lt;br&gt;&lt;div&gt;Based on the patient&#39;s feedback and records of case use, modification, and use from Steps 1 to 3, we infer whether the treatment reported by the patient was effective. If so, we add a new case to the knowledge base. If not, we restart the spiral case reasoning process.&lt;/div&gt;&lt;div&gt;Adding new cases to the case knowledge base continuously expands the case knowledge base and contributes to subsequent reasoning on new, similar cases.&lt;/div&gt;&lt;/font&gt;&lt;/div&gt;" style="rounded=0;whiteSpace=wrap;html=1;fillColor=#B3B3B3;fontColor=#ffffff;strokeColor=#6F0000;" vertex="1" parent="1">
          <mxGeometry x="150" y="40" width="156" height="290" as="geometry" />
        </mxCell>
        <mxCell id="2IbXd_nf8m7JM7i66Ga9-10" value="&lt;div style=&quot;text-align: left;&quot;&gt;&lt;font style=&quot;color: rgb(0, 0, 0);&quot;&gt;&lt;font color=&quot;#000000&quot;&gt;&lt;b&gt;STEP 3: Use of the modified case plan and ongoing medication monitoring&lt;/b&gt;&lt;/font&gt;&lt;br&gt;&lt;font color=&quot;#000000&quot;&gt;For the solution generated in STEP 2, conduct a test for AI dizziness and perform four diagnostic procedures: observation, smelling, questioning, and palpation. Continuously monitor the patient&#39;s medication, observe, check, and record whether the solution complies with and can solve the problems corresponding to the patient&#39;s chief complaint, medical history, and other characteristics in STEP 1.&lt;/font&gt;&lt;/font&gt;&lt;/div&gt;" style="rounded=0;whiteSpace=wrap;html=1;fillColor=#9999FF;fontColor=#ffffff;strokeColor=#6F0000;" vertex="1" parent="1">
          <mxGeometry x="150" y="440" width="156" height="290" as="geometry" />
        </mxCell>
        <mxCell id="2IbXd_nf8m7JM7i66Ga9-7" value="&lt;div style=&quot;text-align: left;&quot;&gt;&lt;div&gt;&lt;font style=&quot;color: rgb(0, 0, 0);&quot;&gt;&lt;b&gt;STEP 2: Weight, modify, and negotiate attributes for the highly correlated case with the most similar attributes&lt;/b&gt;&lt;/font&gt;&lt;/div&gt;&lt;div&gt;&lt;font style=&quot;color: rgb(0, 0, 0);&quot;&gt;For the highly relevant and most similar attribute cases returned, fine-tune the attributes, weight the attributes, integrate and sort the corresponding knowledge, and form the most suitable solution for the current problem&lt;/font&gt;&lt;/div&gt;&lt;/div&gt;" style="rounded=0;whiteSpace=wrap;html=1;fillColor=#66FFB3;fontColor=#ffffff;strokeColor=#6F0000;" vertex="1" parent="1">
          <mxGeometry x="530" y="450" width="156" height="205" as="geometry" />
        </mxCell>
        <mxCell id="2IbXd_nf8m7JM7i66Ga9-11" value="&lt;div&gt;&lt;font style=&quot;color: rgb(0, 0, 0);&quot;&gt;Traditional Chinese Medicine Pulse Diagnosis Case Study Database&lt;/font&gt;&lt;/div&gt;&lt;div&gt;&lt;font style=&quot;color: rgb(0, 0, 0);&quot;&gt;(Original Case Studies / Subsequent Updated Case Studies)&lt;/font&gt;&lt;/div&gt;" style="rounded=0;whiteSpace=wrap;html=1;fillColor=#99CCFF;fontColor=#ffffff;strokeColor=#001DBC;" vertex="1" parent="1">
          <mxGeometry x="304" y="-130" width="220" height="120" as="geometry" />
        </mxCell>
      </root>
    </mxGraphModel>
  </diagram>
</mxfile>
